<?xml version="1.0" encoding="utf-8"?>
<!-- Generator: Adobe Illustrator 26.0.1, SVG Export Plug-In . SVG Version: 6.00 Build 0)  -->
<svg version="1.1" id="Layer_1" xmlns="http://www.w3.org/2000/svg" xmlns:xlink="http://www.w3.org/1999/xlink" x="0px" y="0px"
	 viewBox="0 0 300 100" style="enable-background:new 0 0 300 100;" xml:space="preserve">
<style type="text/css">
	.st0{fill:#FFFFFF;fill-opacity:0.8;}
	.st1{fill:#23BDEE;}
	.st2{clip-path:url(#SVGID_00000081621954320061832410000004859997069316616583_);}
	.st3{fill:#FFFFFF;}
	.st4{font-family:'DGSahabah';}
	.st5{font-size:24.4551px;}
</style>
<g>
	<path class="st0" d="M20,0h260c11,0,20,9,20,20v60c0,11-9,20-20,20H20C9,100,0,91,0,80V20C0,9,9,0,20,0z"/>
</g>
<path class="st1" d="M36,25h34c4.4,0,8,3.6,8,8v34c0,4.4-3.6,8-8,8H36c-4.4,0-8-3.6-8-8V33C28,28.6,31.6,25,36,25z"/>
<g>
	<defs>
		<rect id="SVGID_1_" x="39.2" y="36.2" width="27.5" height="27.5"/>
	</defs>
	<clipPath id="SVGID_00000155113429703790658900000006518297419996613791_">
		<use xlink:href="#SVGID_1_"  style="overflow:visible;"/>
	</clipPath>
	<g style="clip-path:url(#SVGID_00000155113429703790658900000006518297419996613791_);">
		<path class="st3" d="M46.1,36.2c-0.5,0-1,0.4-1,1v2h2v-2C47.1,36.7,46.7,36.2,46.1,36.2z"/>
		<path class="st3" d="M59.9,36.2c-0.5,0-1,0.4-1,1v2h2v-2C60.9,36.7,60.4,36.2,59.9,36.2z"/>
		<path class="st3" d="M63.8,39.2h-2.9v3.9c0,0.5-0.4,1-1,1c-0.5,0-1-0.4-1-1v-3.9H47.1v3.9c0,0.5-0.4,1-1,1c-0.5,0-1-0.4-1-1v-3.9
			h-2.9c-1.6,0-2.9,1.3-2.9,2.9v18.7c0,1.6,1.3,2.9,2.9,2.9h21.6c1.6,0,2.9-1.3,2.9-2.9V42.1C66.8,40.5,65.4,39.2,63.8,39.2z
			 M64.8,60.8c0,0.5-0.4,1-1,1H42.2c-0.5,0-1-0.4-1-1V48h23.6V60.8z"/>
		<path class="st3" d="M47.1,50h-2c-0.5,0-1,0.4-1,1c0,0.5,0.4,1,1,1h2c0.5,0,1-0.4,1-1C48.1,50.4,47.6,50,47.1,50z"/>
		<path class="st3" d="M54,50h-2c-0.5,0-1,0.4-1,1c0,0.5,0.4,1,1,1h2c0.5,0,1-0.4,1-1C55,50.4,54.5,50,54,50z"/>
		<path class="st3" d="M60.9,50h-2c-0.5,0-1,0.4-1,1c0,0.5,0.4,1,1,1h2c0.5,0,1-0.4,1-1C61.8,50.4,61.4,50,60.9,50z"/>
		<path class="st3" d="M47.1,53.9h-2c-0.5,0-1,0.4-1,1c0,0.5,0.4,1,1,1h2c0.5,0,1-0.4,1-1C48.1,54.4,47.6,53.9,47.1,53.9z"/>
		<path class="st3" d="M54,53.9h-2c-0.5,0-1,0.4-1,1c0,0.5,0.4,1,1,1h2c0.5,0,1-0.4,1-1C55,54.4,54.5,53.9,54,53.9z"/>
		<path class="st3" d="M60.9,53.9h-2c-0.5,0-1,0.4-1,1c0,0.5,0.4,1,1,1h2c0.5,0,1-0.4,1-1C61.8,54.4,61.4,53.9,60.9,53.9z"/>
		<path class="st3" d="M47.1,57.9h-2c-0.5,0-1,0.4-1,1c0,0.5,0.4,1,1,1h2c0.5,0,1-0.4,1-1C48.1,58.3,47.6,57.9,47.1,57.9z"/>
		<path class="st3" d="M54,57.9h-2c-0.5,0-1,0.4-1,1c0,0.5,0.4,1,1,1h2c0.5,0,1-0.4,1-1C55,58.3,54.5,57.9,54,57.9z"/>
		<path class="st3" d="M60.9,57.9h-2c-0.5,0-1,0.4-1,1c0,0.5,0.4,1,1,1h2c0.5,0,1-0.4,1-1C61.8,58.3,61.4,57.9,60.9,57.9z"/>
	</g>
</g>
<text transform="matrix(1 0 0 1 87.7949 60.3047)" class="st1 st4 st5">Reliable Timelines</text>
</svg>
