<?xml version="1.0" encoding="utf-8"?>
<!-- Generator: Adobe Illustrator 26.0.1, SVG Export Plug-In . SVG Version: 6.00 Build 0)  -->
<svg version="1.1" id="Layer_1" xmlns="http://www.w3.org/2000/svg" xmlns:xlink="http://www.w3.org/1999/xlink" x="0px" y="0px"
	 viewBox="0 0 370 110" style="enable-background:new 0 0 370 110;" xml:space="preserve">
<style type="text/css">
	.st0{fill:#FFFFFF;fill-opacity:0.8;}
	.st1{fill:#595959;}
	.st2{fill:#06BBC4;}
	.st3{fill:#FFFFFF;}
	.st4{font-family:'DGSahabah';}
	.st5{font-size:22.4216px;}
</style>
<g>
	<path class="st0" d="M20,0h330c11,0,20,9,20,20v70c0,11-9,20-20,20H20c-11,0-20-9-20-20V20C0,9,9,0,20,0z"/>
</g>
<path class="st1" d="M109.5,49.2c-1.7,0-3.1-0.4-4.4-1.1c-1.2-0.7-2.2-1.7-2.9-3c-0.7-1.3-1-2.8-1-4.6s0.3-3.3,1-4.6
	c0.7-1.3,1.6-2.3,2.9-3c1.2-0.7,2.7-1.1,4.4-1.1c1.1,0,2.2,0.2,3.2,0.5c1,0.4,1.9,0.8,2.5,1.5l-1,2.3c-0.8-0.6-1.5-1-2.3-1.3
	c-0.8-0.3-1.6-0.4-2.4-0.4c-1.6,0-2.9,0.5-3.8,1.6c-0.9,1.1-1.3,2.6-1.3,4.6c0,2,0.4,3.5,1.3,4.6c0.9,1.1,2.2,1.6,3.8,1.6
	c0.8,0,1.6-0.1,2.4-0.4c0.8-0.3,1.5-0.7,2.3-1.3l1,2.3c-0.7,0.6-1.5,1.1-2.5,1.5C111.7,49,110.6,49.2,109.5,49.2z M123.4,49.2
	c-1.2,0-2.3-0.2-3.2-0.7c-0.9-0.5-1.6-1.2-2.1-2.1s-0.7-2-0.7-3.2c0-1.2,0.2-2.3,0.7-3.2c0.5-0.9,1.2-1.6,2.1-2.1
	c0.9-0.5,2-0.7,3.2-0.7c1.2,0,2.2,0.2,3.1,0.7c0.9,0.5,1.6,1.2,2.1,2.1c0.5,0.9,0.7,2,0.7,3.2c0,1.2-0.2,2.3-0.7,3.2
	c-0.5,0.9-1.2,1.6-2.1,2.1C125.7,48.9,124.6,49.2,123.4,49.2z M123.4,46.9c1,0,1.7-0.3,2.2-1c0.5-0.6,0.8-1.6,0.8-2.8
	c0-1.2-0.3-2.2-0.8-2.8c-0.5-0.7-1.2-1-2.2-1c-1,0-1.7,0.3-2.2,1c-0.5,0.6-0.8,1.6-0.8,2.8c0,1.2,0.3,2.2,0.8,2.8
	S122.4,46.9,123.4,46.9z M139.2,37c1.4,0,2.5,0.4,3.1,1.2c0.7,0.8,1,2,1,3.6V49h-3v-7c0-0.9-0.2-1.6-0.5-2c-0.3-0.4-0.9-0.6-1.6-0.6
	c-0.9,0-1.6,0.3-2.1,0.8c-0.5,0.5-0.8,1.3-0.8,2.2V49h-3V37.3h2.9V39c0.4-0.7,0.9-1.2,1.6-1.5C137.6,37.2,138.3,37,139.2,37z
	 M158.3,37.3v10.7c0,1.8-0.5,3.2-1.5,4.2c-1,0.9-2.5,1.4-4.5,1.4c-1,0-2-0.1-3-0.4c-0.9-0.3-1.8-0.6-2.5-1.1l0.8-2.1
	c1.5,0.9,3,1.3,4.5,1.3c2.1,0,3.1-1,3.1-3.1v-1.5c-0.4,0.7-0.9,1.2-1.5,1.5c-0.7,0.4-1.4,0.5-2.3,0.5c-1,0-1.9-0.2-2.7-0.7
	c-0.8-0.5-1.4-1.2-1.8-2.1c-0.4-0.9-0.7-1.9-0.7-3s0.2-2.2,0.6-3c0.4-0.9,1.1-1.6,1.9-2.1c0.8-0.5,1.7-0.7,2.7-0.7
	c0.9,0,1.6,0.2,2.3,0.6c0.7,0.4,1.2,0.9,1.5,1.5v-1.8H158.3z M152.3,46.3c1,0,1.7-0.3,2.2-0.9c0.5-0.6,0.8-1.5,0.8-2.6
	c0-1.1-0.3-2-0.8-2.6c-0.5-0.6-1.3-0.9-2.2-0.9c-0.9,0-1.7,0.3-2.2,0.9c-0.5,0.6-0.8,1.5-0.8,2.6c0,1.1,0.3,1.9,0.8,2.6
	C150.6,46,151.3,46.3,152.3,46.3z M169.6,39.5l-1.8,0.2c-2,0.2-3,1.2-3,3V49h-3V37.3h2.9v2.1c0.6-1.4,1.9-2.2,3.8-2.3l0.9-0.1
	L169.6,39.5z M176.5,37c1.6,0,2.9,0.4,3.7,1.2c0.8,0.8,1.2,2,1.2,3.7V49h-2.9v-1.8c-0.3,0.6-0.7,1.1-1.3,1.5c-0.6,0.4-1.2,0.5-2,0.5
	c-0.8,0-1.5-0.2-2.1-0.5c-0.6-0.3-1.1-0.8-1.5-1.3c-0.4-0.6-0.6-1.2-0.6-1.9c0-0.9,0.2-1.5,0.6-2c0.4-0.5,1.2-0.9,2.2-1.1
	c1-0.2,2.4-0.3,4.1-0.3h0.6v-0.6c0-0.8-0.2-1.4-0.5-1.7c-0.3-0.4-0.9-0.5-1.7-0.5c-0.6,0-1.3,0.1-2,0.3c-0.7,0.2-1.3,0.5-2,0.9
	l-0.8-2.1c0.7-0.4,1.4-0.8,2.4-1C174.8,37.1,175.7,37,176.5,37z M175.9,47c0.8,0,1.4-0.3,1.9-0.8c0.5-0.5,0.8-1.2,0.8-2.1v-0.5h-0.4
	c-1.1,0-1.9,0-2.5,0.1c-0.6,0.1-1,0.3-1.3,0.5c-0.3,0.2-0.4,0.6-0.4,1c0,0.5,0.2,0.9,0.5,1.3C174.9,46.9,175.3,47,175.9,47z
	 M190.9,46.9c0.4,0,0.7,0,1.1-0.1l-0.1,2.2c-0.5,0-0.9,0.1-1.3,0.1c-1.6,0-2.9-0.4-3.6-1.1c-0.8-0.8-1.2-1.9-1.2-3.4v-5.1h-2.3v-2.3
	h2.3v-3.5h3v3.5h3.1v2.3h-3.1v5.1C188.8,46.2,189.5,46.9,190.9,46.9z M205.1,37.3V49h-2.9v-1.8c-0.4,0.6-0.9,1.1-1.5,1.5
	c-0.6,0.3-1.3,0.5-2.1,0.5c-2.9,0-4.3-1.6-4.3-4.8v-7.1h3v7.1c0,0.8,0.2,1.4,0.5,1.8c0.3,0.4,0.9,0.6,1.6,0.6c0.8,0,1.5-0.3,2-0.8
	c0.5-0.6,0.8-1.3,0.8-2.2v-6.5H205.1z M208.7,49V32.1h3V49H208.7z M220.3,37c1.6,0,2.9,0.4,3.7,1.2c0.8,0.8,1.2,2,1.2,3.7V49h-2.9
	v-1.8c-0.3,0.6-0.7,1.1-1.3,1.5c-0.6,0.4-1.2,0.5-2,0.5c-0.8,0-1.5-0.2-2.1-0.5c-0.6-0.3-1.1-0.8-1.5-1.3c-0.4-0.6-0.6-1.2-0.6-1.9
	c0-0.9,0.2-1.5,0.6-2c0.4-0.5,1.2-0.9,2.2-1.1c1-0.2,2.4-0.3,4.1-0.3h0.6v-0.6c0-0.8-0.2-1.4-0.5-1.7c-0.3-0.4-0.9-0.5-1.7-0.5
	c-0.6,0-1.3,0.1-2,0.3c-0.7,0.2-1.3,0.5-2,0.9l-0.8-2.1c0.7-0.4,1.4-0.8,2.4-1C218.6,37.1,219.4,37,220.3,37z M219.6,47
	c0.8,0,1.4-0.3,1.9-0.8c0.5-0.5,0.8-1.2,0.8-2.1v-0.5h-0.4c-1.1,0-1.9,0-2.5,0.1c-0.6,0.1-1,0.3-1.3,0.5c-0.3,0.2-0.4,0.6-0.4,1
	c0,0.5,0.2,0.9,0.5,1.3C218.6,46.9,219,47,219.6,47z M234.7,46.9c0.4,0,0.7,0,1.1-0.1l-0.1,2.2c-0.5,0-0.9,0.1-1.3,0.1
	c-1.6,0-2.9-0.4-3.6-1.1c-0.8-0.8-1.2-1.9-1.2-3.4v-5.1h-2.3v-2.3h2.3v-3.5h3v3.5h3.1v2.3h-3.1v5.1
	C232.5,46.2,233.2,46.9,234.7,46.9z M238,49V37.3h3V49H238z M237.9,31.8h3.3v3h-3.3V31.8z M249.9,49.2c-1.2,0-2.3-0.2-3.2-0.7
	c-0.9-0.5-1.6-1.2-2.1-2.1s-0.7-2-0.7-3.2c0-1.2,0.2-2.3,0.7-3.2c0.5-0.9,1.2-1.6,2.1-2.1c0.9-0.5,2-0.7,3.2-0.7
	c1.2,0,2.2,0.2,3.1,0.7c0.9,0.5,1.6,1.2,2.1,2.1c0.5,0.9,0.7,2,0.7,3.2c0,1.2-0.2,2.3-0.7,3.2c-0.5,0.9-1.2,1.6-2.1,2.1
	C252.2,48.9,251.1,49.2,249.9,49.2z M249.9,46.9c1,0,1.7-0.3,2.2-1s0.8-1.6,0.8-2.8c0-1.2-0.3-2.2-0.8-2.8c-0.5-0.7-1.2-1-2.2-1
	c-1,0-1.7,0.3-2.2,1c-0.5,0.6-0.8,1.6-0.8,2.8c0,1.2,0.3,2.2,0.8,2.8C248.2,46.5,249,46.9,249.9,46.9z M265.7,37
	c1.4,0,2.5,0.4,3.1,1.2c0.7,0.8,1,2,1,3.6V49h-3v-7c0-0.9-0.2-1.6-0.5-2c-0.3-0.4-0.9-0.6-1.6-0.6c-0.9,0-1.6,0.3-2.1,0.8
	c-0.5,0.5-0.8,1.3-0.8,2.2V49h-3V37.3h2.9V39c0.4-0.7,0.9-1.2,1.6-1.5C264.1,37.2,264.8,37,265.7,37z M277.7,49.2
	c-1,0-2-0.1-2.9-0.4c-0.9-0.3-1.6-0.6-2.2-1.1l0.8-2.1c1.2,0.9,2.7,1.4,4.3,1.4c0.7,0,1.2-0.1,1.6-0.3c0.4-0.2,0.6-0.5,0.6-1
	c0-0.4-0.1-0.6-0.4-0.8c-0.2-0.2-0.7-0.4-1.3-0.5l-1.9-0.4c-1.1-0.2-1.9-0.6-2.4-1.2c-0.5-0.5-0.8-1.2-0.8-2.1
	c0-0.7,0.2-1.4,0.6-1.9c0.4-0.6,1-1,1.7-1.3c0.7-0.3,1.6-0.5,2.5-0.5c0.8,0,1.6,0.1,2.4,0.4c0.8,0.3,1.5,0.6,2.1,1.1l-0.8,2
	c-1.2-0.9-2.4-1.3-3.6-1.3c-0.7,0-1.2,0.1-1.5,0.4c-0.4,0.2-0.6,0.6-0.6,1c0,0.3,0.1,0.6,0.3,0.8c0.2,0.2,0.6,0.4,1.1,0.5l2,0.5
	c1.2,0.3,2,0.7,2.6,1.2c0.5,0.5,0.8,1.3,0.8,2.2c0,1.1-0.4,2-1.3,2.6C280.4,48.9,279.2,49.2,277.7,49.2z"/>
<path class="st2" d="M34,30h34c4.4,0,8,3.6,8,8v34c0,4.4-3.6,8-8,8H34c-4.4,0-8-3.6-8-8V38C26,33.6,29.6,30,34,30z"/>
<path class="st3" d="M64.9,44.3H37.1L51,55.8l14.1-11.4C65,44.3,65,44.3,64.9,44.3z"/>
<path class="st3" d="M51.7,58c-0.4,0.3-1,0.3-1.4,0L36,46.2v18.5c0,0.6,0.5,1.1,1.1,1.1h27.9c0.6,0,1.1-0.5,1.1-1.1V46.3L51.7,58z"
	/>
<text transform="matrix(1 0 0 1 101.296 74.6562)" class="st2 st4 st5">Your Website is Complete</text>
</svg>
