<?xml version="1.0" encoding="utf-8"?>
<!-- Generator: Adobe Illustrator 26.0.1, SVG Export Plug-In . SVG Version: 6.00 Build 0)  -->
<svg version="1.1" id="Layer_1" xmlns="http://www.w3.org/2000/svg" xmlns:xlink="http://www.w3.org/1999/xlink" x="0px" y="0px"
	 viewBox="0 0 390 187" style="enable-background:new 0 0 390 187;" xml:space="preserve">
<style type="text/css">
	.st0{fill:#FFFFFF;fill-opacity:0.8;}
	.st1{fill:#545567;}
	.st2{fill:#D8587E;}
	.st3{fill:#FFFFFF;}
	.st4{fill:none;}
	.st5{fill:#2EBB5E;stroke:#FBECD7;stroke-width:2;}
	.st6{font-family:'MyriadPro-Regular';}
	.st7{font-size:25.8454px;}
</style>
<g>
	<path class="st0" d="M20,0h350c11,0,20,9,20,20v147c0,11-9,20-20,20H20c-11,0-20-9-20-20V20C0,9,9,0,20,0z"/>
</g>
<path class="st1" d="M110.1,79V66.6h-5v-1.7h12.1v1.7h-5V79H110.1z M121.7,79.2c-1,0-1.8-0.2-2.6-0.6s-1.3-1-1.7-1.7
	c-0.4-0.8-0.6-1.7-0.6-2.7s0.2-1.9,0.6-2.7c0.4-0.8,1-1.3,1.7-1.8s1.6-0.6,2.6-0.6c1,0,1.8,0.2,2.5,0.6s1.3,1,1.7,1.8
	c0.4,0.7,0.6,1.6,0.6,2.7s-0.2,1.9-0.6,2.7c-0.4,0.7-1,1.3-1.7,1.7S122.7,79.2,121.7,79.2z M121.7,77.6c0.8,0,1.5-0.3,2-0.9
	c0.5-0.6,0.8-1.5,0.8-2.6s-0.3-2-0.8-2.6c-0.5-0.6-1.2-0.9-2-0.9c-0.8,0-1.5,0.3-2,0.9c-0.5,0.6-0.8,1.4-0.8,2.6s0.3,2,0.8,2.6
	C120.2,77.3,120.9,77.6,121.7,77.6z M132.9,79.2c-0.9,0-1.6-0.2-2.3-0.6c-0.6-0.4-1.1-1-1.5-1.8s-0.5-1.7-0.5-2.7s0.2-1.9,0.5-2.7
	c0.4-0.8,0.9-1.3,1.5-1.8s1.4-0.6,2.3-0.6c0.7,0,1.4,0.2,2,0.5c0.6,0.3,1,0.8,1.3,1.3v-5.9h2V79h-2v-1.7c-0.3,0.6-0.7,1-1.3,1.4
	C134.3,79,133.7,79.2,132.9,79.2z M133.5,77.6c0.8,0,1.5-0.3,2-0.9c0.5-0.6,0.8-1.5,0.8-2.6s-0.3-2-0.8-2.6c-0.5-0.6-1.2-0.9-2-0.9
	c-0.8,0-1.5,0.3-2,0.9c-0.5,0.6-0.8,1.4-0.8,2.6s0.3,2,0.8,2.6C131.9,77.3,132.6,77.6,133.5,77.6z M144.5,79.2
	c-0.7,0-1.3-0.1-1.8-0.4c-0.5-0.3-1-0.6-1.3-1.1c-0.3-0.5-0.5-1-0.5-1.5c0-0.7,0.2-1.3,0.5-1.7c0.4-0.4,1-0.7,1.8-0.9
	c0.9-0.2,2-0.3,3.4-0.3h0.7v-0.5c0-0.8-0.2-1.3-0.5-1.6c-0.3-0.3-0.8-0.5-1.6-0.5c-0.6,0-1.1,0.1-1.7,0.3c-0.6,0.2-1.1,0.4-1.7,0.8
	l-0.6-1.4c0.5-0.4,1.1-0.6,1.9-0.9c0.8-0.2,1.5-0.3,2.2-0.3c1.3,0,2.3,0.3,3,1c0.6,0.6,1,1.6,1,3v6h-1.9v-1.6
	c-0.2,0.6-0.6,1-1.1,1.3C145.9,79,145.3,79.2,144.5,79.2z M144.9,77.7c0.7,0,1.3-0.3,1.8-0.8c0.5-0.5,0.7-1.1,0.7-1.9v-0.5h-0.7
	c-1,0-1.7,0-2.3,0.1c-0.5,0.1-0.9,0.3-1.2,0.5c-0.2,0.2-0.3,0.5-0.3,0.9c0,0.5,0.2,0.9,0.5,1.2C143.9,77.6,144.3,77.7,144.9,77.7z
	 M153.5,82.6l1.7-3.9l-4.1-9.5h2.2l3,7.4l3-7.4h2.1l-5.8,13.4H153.5z M172,79.2c-0.7,0-1.3-0.1-1.8-0.4c-0.5-0.3-1-0.6-1.3-1.1
	c-0.3-0.5-0.5-1-0.5-1.5c0-0.7,0.2-1.3,0.5-1.7c0.4-0.4,1-0.7,1.8-0.9c0.9-0.2,2-0.3,3.4-0.3h0.7v-0.5c0-0.8-0.2-1.3-0.5-1.6
	c-0.3-0.3-0.8-0.5-1.6-0.5c-0.6,0-1.1,0.1-1.7,0.3c-0.6,0.2-1.1,0.4-1.7,0.8l-0.6-1.4c0.5-0.4,1.1-0.6,1.9-0.9
	c0.8-0.2,1.5-0.3,2.2-0.3c1.3,0,2.3,0.3,3,1c0.6,0.6,1,1.6,1,3v6H175v-1.6c-0.2,0.6-0.6,1-1.1,1.3C173.4,79,172.7,79.2,172,79.2z
	 M172.4,77.7c0.7,0,1.3-0.3,1.8-0.8c0.5-0.5,0.7-1.1,0.7-1.9v-0.5h-0.7c-1,0-1.7,0-2.3,0.1c-0.5,0.1-0.9,0.3-1.2,0.5
	c-0.2,0.2-0.3,0.5-0.3,0.9c0,0.5,0.2,0.9,0.5,1.2C171.3,77.6,171.8,77.7,172.4,77.7z M184.2,79.2c-1.2,0-2.1-0.3-2.7-0.9
	c-0.6-0.6-0.9-1.5-0.9-2.7v-4.7h-1.9v-1.6h1.9v-2.9h2v2.9h3v1.6h-3v4.6c0,0.7,0.1,1.2,0.4,1.6c0.3,0.4,0.8,0.5,1.5,0.5
	c0.2,0,0.4,0,0.6-0.1c0.2-0.1,0.4-0.1,0.6-0.2l0.3,1.5c-0.2,0.1-0.5,0.2-0.8,0.3C184.9,79.1,184.5,79.2,184.2,79.2z M194.3,79v-1.7
	h3.2v-10l-2.5,1.6l-0.8-1.5l3.9-2.4h1.5v12.4h3V79H194.3z M206.1,79v-1.5l4.7-5c0.7-0.7,1.1-1.3,1.4-1.9c0.3-0.6,0.4-1.2,0.4-1.7
	c0-1.5-0.9-2.3-2.7-2.3c-1.4,0-2.6,0.5-3.7,1.5l-0.7-1.6c0.5-0.5,1.2-0.9,2-1.2c0.8-0.3,1.7-0.5,2.6-0.5c1.5,0,2.6,0.3,3.3,1
	c0.8,0.7,1.2,1.6,1.2,2.9c0,0.8-0.2,1.7-0.6,2.5c-0.4,0.8-1,1.7-1.9,2.6l-3.5,3.7h6.6V79H206.1z M218,79v-2.4h2.4V79H218z
	 M227.9,79.2c-1.6,0-2.9-0.6-3.8-1.9c-0.9-1.3-1.3-3-1.3-5.4c0-2.4,0.4-4.2,1.3-5.4c0.9-1.2,2.1-1.8,3.8-1.8c1.7,0,2.9,0.6,3.8,1.8
	c0.9,1.2,1.3,3,1.3,5.4c0,2.3-0.4,4.1-1.3,5.4C230.8,78.6,229.6,79.2,227.9,79.2z M227.9,77.5c1,0,1.8-0.4,2.3-1.3
	c0.5-0.9,0.7-2.3,0.7-4.2s-0.2-3.3-0.7-4.2c-0.5-0.9-1.2-1.3-2.3-1.3c-1,0-1.8,0.4-2.3,1.3c-0.5,0.9-0.7,2.3-0.7,4.2
	c0,1.9,0.2,3.3,0.7,4.2C226.2,77,226.9,77.5,227.9,77.5z M240.3,79.2c-1.6,0-2.9-0.6-3.8-1.9c-0.9-1.3-1.3-3-1.3-5.4
	c0-2.4,0.4-4.2,1.3-5.4c0.9-1.2,2.1-1.8,3.8-1.8c1.7,0,2.9,0.6,3.8,1.8c0.9,1.2,1.3,3,1.3,5.4c0,2.3-0.4,4.1-1.3,5.4
	C243.2,78.6,242,79.2,240.3,79.2z M240.3,77.5c1,0,1.8-0.4,2.3-1.3c0.5-0.9,0.7-2.3,0.7-4.2s-0.2-3.3-0.7-4.2
	c-0.5-0.9-1.2-1.3-2.3-1.3c-1,0-1.8,0.4-2.3,1.3c-0.5,0.9-0.7,2.3-0.7,4.2c0,1.9,0.2,3.3,0.7,4.2C238.6,77,239.3,77.5,240.3,77.5z
	 M254,79V64.9h5.8c1.5,0,2.7,0.4,3.5,1.1c0.8,0.7,1.2,1.8,1.2,3.2c0,1.4-0.4,2.4-1.2,3.2c-0.8,0.7-2,1.1-3.5,1.1h-3.8V79H254z
	 M256.1,71.9h3.5c2,0,3-0.9,3-2.7c0-1.8-1-2.6-3-2.6h-3.5V71.9z M267.3,79V64.9h1.7l5.2,9.7l5.2-9.7h1.7V79h-1.9V68.7l-4.4,8.2h-1.3
	l-4.4-8.1V79H267.3z"/>
<path class="st2" d="M130,109h130c13.8,0,25,11.2,25,25l0,0c0,13.8-11.2,25-25,25H130c-13.8,0-25-11.2-25-25l0,0
	C105,120.2,116.2,109,130,109z"/>
<path class="st3" d="M153,141.2l-0.2-2.1l1.4-0.1c1.2-0.1,1.8-0.7,1.8-2v-10.1h2.6V137c0,2.5-1.3,3.9-3.9,4.1L153,141.2z
	 M165.9,141.2c-1,0-1.9-0.2-2.6-0.6c-0.7-0.4-1.3-1-1.7-1.8c-0.4-0.8-0.6-1.7-0.6-2.7c0-1,0.2-1.9,0.6-2.7c0.4-0.8,1-1.3,1.7-1.8
	c0.7-0.4,1.6-0.6,2.6-0.6c1,0,1.9,0.2,2.6,0.6c0.7,0.4,1.3,1,1.7,1.8c0.4,0.8,0.6,1.7,0.6,2.7c0,1-0.2,1.9-0.6,2.7
	c-0.4,0.8-1,1.3-1.7,1.8C167.8,141,166.9,141.2,165.9,141.2z M165.9,139.3c0.7,0,1.3-0.3,1.8-0.8c0.5-0.5,0.7-1.3,0.7-2.4
	c0-1.1-0.2-1.9-0.7-2.4c-0.5-0.5-1.1-0.8-1.8-0.8c-0.7,0-1.3,0.3-1.8,0.8c-0.5,0.5-0.7,1.3-0.7,2.4c0,1.1,0.2,1.9,0.7,2.4
	C164.5,139,165.1,139.3,165.9,139.3z M172.8,129.1v-2.4h2.8v2.4H172.8z M172.9,141v-9.8h2.5v9.8H172.9z M178,141v-9.8h2.4v1.5
	c0.3-0.6,0.8-1,1.3-1.3c0.6-0.3,1.2-0.4,1.9-0.4c2.3,0,3.5,1.3,3.5,4v6h-2.5v-5.8c0-0.8-0.1-1.3-0.4-1.7c-0.3-0.3-0.7-0.5-1.3-0.5
	c-0.7,0-1.3,0.2-1.8,0.7c-0.4,0.5-0.6,1.1-0.6,1.8v5.5H178z M195.4,141v-14.1h1.9l7.6,9.8v-9.8h2.4V141h-1.9l-7.6-9.9v9.9H195.4z
	 M214.5,141.2c-1,0-1.9-0.2-2.6-0.6c-0.7-0.4-1.3-1-1.7-1.8c-0.4-0.8-0.6-1.7-0.6-2.7c0-1,0.2-1.9,0.6-2.7c0.4-0.8,1-1.3,1.7-1.8
	c0.7-0.4,1.6-0.6,2.6-0.6c1,0,1.9,0.2,2.6,0.6c0.7,0.4,1.3,1,1.7,1.8c0.4,0.8,0.6,1.7,0.6,2.7c0,1-0.2,1.9-0.6,2.7
	c-0.4,0.8-1,1.3-1.7,1.8C216.4,141,215.6,141.2,214.5,141.2z M214.5,139.3c0.7,0,1.3-0.3,1.8-0.8c0.5-0.5,0.7-1.3,0.7-2.4
	c0-1.1-0.2-1.9-0.7-2.4c-0.5-0.5-1.1-0.8-1.8-0.8c-0.7,0-1.3,0.3-1.8,0.8c-0.5,0.5-0.7,1.3-0.7,2.4c0,1.1,0.2,1.9,0.7,2.4
	C213.2,139,213.8,139.3,214.5,139.3z M224.1,141l-3.9-9.8h2.6l2.5,6.9l2.5-6.9h1.8l2.5,6.9l2.5-6.9h2.4l-3.8,9.8H231l-2.4-6.3
	l-2.3,6.3H224.1z"/>
<circle class="st4" cx="54" cy="54" r="28"/>
<circle class="st5" cx="73" cy="75" r="9"/>
<text transform="matrix(1 0 0 1 106 56.5889)" class="st1 st6 st7">Website Meeting</text>
</svg>
